<svg xmlns="http://www.w3.org/2000/svg" xmlns:xlink="http://www.w3.org/1999/xlink" version="1.1" x="0px" y="0px" viewBox="0 0 48 60" enable-background="new 0 0 48 48" xml:space="preserve"><g><path fill="#000000" d="M24,45.5L7.6,29.6c-3.8-3.8-6.1-7.8-6.9-11.8c-0.6-3.5,0.2-7.2,2.4-10.1C5.2,4.8,8.3,3,11.8,2.6   c0.5-0.1,0.9-0.1,1.4-0.1c5.4,0,9.2,3.9,10.8,5.8c1.6-2,5.4-5.8,10.8-5.8c0.5,0,0.9,0,1.4,0.1c3.5,0.4,6.6,2.3,8.8,5.2   c2.1,2.9,3,6.6,2.4,10.1c-0.7,4-3,7.9-6.9,11.7L24,45.5z M13.2,4.4c-0.4,0-0.8,0-1.1,0.1c-3,0.4-5.6,1.9-7.4,4.4   c-1.8,2.5-2.6,5.6-2,8.6c0.6,3.6,2.8,7.2,6.3,10.7L24,42.8l15.1-14.6c3.5-3.5,5.7-7.1,6.3-10.7c0.5-3-0.2-6.1-2-8.6   c-1.8-2.5-4.5-4-7.4-4.4c-0.4,0-0.8-0.1-1.1-0.1c-6,0-9.9,6-10,6.1L24,11.8l-0.8-1.3C23.1,10.4,19.2,4.4,13.2,4.4z"/></g><text x="0" y="63" fill="#000000" font-size="5px" font-weight="bold" font-family="'Helvetica Neue', Helvetica, Arial-Unicode, Arial, Sans-serif">Created by Vectors Market</text><text x="0" y="68" fill="#000000" font-size="5px" font-weight="bold" font-family="'Helvetica Neue', Helvetica, Arial-Unicode, Arial, Sans-serif">from the Noun Project</text></svg>